<?xml version="1.0" encoding="UTF-8"?>
<svg xmlns="http://www.w3.org/2000/svg" xmlns:xlink="http://www.w3.org/1999/xlink" width="17mm" height="24mm" viewBox="0 0 68 96">
  <!-- 牌種類表示エリア（右上） -->
  <text 
    id="tile-type-placeholder" 
    x="64" 
    y="12" 
    font-family="sans-serif" 
    font-size="8" 
    text-anchor="end" 
    fill="#666666"
  >白</text>
  
  <!-- AWSアイコン表示エリア（中央） -->
  <g id="icon-placeholder" transform="translate(4, 18)"><g transform="translate(5.31, 0.00) scale(0.0672)"><ns0:svg xmlns:ns0="http://www.w3.org/2000/svg" version="1.1" width="735" height="893">
<ns0:path d="M0 0 C1.29019043 0.56436768 1.29019043 0.56436768 2.60644531 1.14013672 C32.37188646 14.33362482 59.54500433 32.84037288 83.55078125 54.7734375 C85.13548535 56.21407759 86.73623839 57.6373407 88.35546875 59.0390625 C100.1082105 69.27717684 110.32115125 80.92702574 119.72070312 93.32666016 C120.96670139 94.95644491 122.23602849 96.56448061 123.515625 98.16796875 C133.64366973 110.92878888 142.15990731 124.71995418 149.92041016 139.02587891 C150.97255197 140.94980896 152.05183295 142.85610618 153.13671875 144.76171875 C184.43753671 200.63533962 195.25228302 267.29441895 200.6875 330.25 C200.74843842 330.95404968 200.80937683 331.65809937 200.87216187 332.38348389 C201.2876885 337.25300143 201.66027145 342.12462193 202 347 C202.04912537 347.69649658 202.09825073 348.39299316 202.14886475 349.1105957 C203.1877698 364.39317214 203.24302912 379.68745802 203.25 395 C203.25044186 395.66704201 203.25088371 396.33408401 203.25133896 397.02133942 C203.28003003 479.98755592 189.54526228 561.68306982 108 751 C107.3510376 751.96317139 107.3510376 751.96317139 106.68896484 752.94580078 C100.68172682 761.78703354 94.0233181 769.9515392 87 778 C86.09507812 779.05574219 86.09507812 779.05574219 85.171875 780.1328125 C83.4690206 782.10845426 81.74072173 784.05760929 80 786 C79.58169922 786.46873535 79.16339844 786.9374707 78.73242188 787.42041016 C71.55640896 795.43229384 64.09300168 802.91669172 56 810 C55.48856445 810.45084961 54.97712891 810.90169922 54.45019531 811.36621094 C20.64541302 841.04280798 -23.33239881 868.26984239 -69.89501953 866.15673828 C-90.336448 864.63465558 -107.96424186 855.78308652 -121.34375 840.28515625 C-130.20066913 828.98651797 -136.26716133 816.49314102 -141 803 C-141.4861377 803.36714111 -141.97227539 803.73428223 -142.47314453 804.11254883 C-193.31558615 842.39384487 -255.43569475 872.3035944 -320.77368164 863.984375 C-343.08155092 860.7911591 -364.98701404 853.26045967 -382 838 C-383.35931641 836.78183594 -383.35931641 836.78183594 -384.74609375 835.5390625 C-404.46807802 816.88387072 -413.11829823 791.01231683 -414.21875 764.359375 C-415.11125938 730.81786195 -405.56273209 697.43883521 -392 667 C-393.05574219 667.49628906 -394.11148438 667.99257813 -395.19921875 668.50390625 C-425.01312117 682.27650312 -459.29900865 692.7595532 -491.6875 681.74609375 C-507.85906348 675.35065862 -520.16464711 663.22552019 -527.1875 647.30859375 C-535.00364585 627.10730503 -533.87008289 605.00421173 -525.47436523 585.24365234 C-522.95694327 579.70524066 -520.04728447 574.39533424 -517.125 569.0625 C-515.7869225 566.59039605 -514.45434833 564.11533262 -513.12109375 561.640625 C-512.43345459 560.36652372 -511.74579176 559.09243522 -511.05810547 557.81835938 C-473.43711178 488.04892067 -463.20504507 415.73186304 -455.16973591 337.91407776 C-451.40747508 301.49145533 -447.32312876 265.49977271 -438 230 C-437.81546265 229.29381531 -437.63092529 228.58763062 -437.4407959 227.86004639 C-429.86697619 198.94031036 -421.25211459 170.90091622 -408 144 C-407.54866699 143.08347656 -407.09733398 142.16695312 -406.63232422 141.22265625 C-396.94960487 121.76649659 -385.53009972 103.99022643 -372 87 C-370.84757812 85.52660156 -370.84757812 85.52660156 -369.671875 84.0234375 C-363.23364311 75.93987968 -356.1390212 68.46141501 -349 61 C-347.64648438 59.58267578 -347.64648438 59.58267578 -346.265625 58.13671875 C-340.53502628 52.26924267 -334.43129701 47.08046977 -328 42 C-326.94056056 41.13906047 -325.88199525 40.27704436 -324.82421875 39.4140625 C-315.63125769 31.97412767 -305.97776083 25.34176022 -296 19 C-295.32130859 18.5683252 -294.64261719 18.13665039 -293.94335938 17.69189453 C-211.09105225 -34.36521012 -102.02741661 -41.06061048 0 0 Z " fill="#FEFEFE" transform="translate(532,27)" stroke="#000000" stroke-width="8" stroke-linejoin="round" stroke-linecap="round" />
<ns0:path d="M0 0 C12.27338685 7.51975455 19.11379998 19.65089328 22.57348633 33.35375977 C28.73265737 59.6532745 28.71735442 91.49922511 15.16796875 115.484375 C12.4662031 119.73895956 9.47874597 123.36823278 5.71484375 126.74609375 C4.97234375 127.42671875 4.22984375 128.10734375 3.46484375 128.80859375 C-6.29628974 135.68575598 -16.64357989 136.56220426 -28.28515625 135.74609375 C-37.00731798 133.97776507 -44.48265309 128.38206194 -49.43554688 121.04101562 C-57.86442664 107.12081664 -61.39329448 90.69081735 -61.48828125 74.53125 C-61.49398132 73.75784775 -61.4996814 72.9844455 -61.5055542 72.18760681 C-61.51495487 70.554691 -61.52151843 68.92175664 -61.52539062 67.28881836 C-61.53500706 64.84648388 -61.56603966 62.40502506 -61.59765625 59.96289062 C-61.73581223 39.5624607 -58.16410747 19.64040466 -44.09765625 3.99609375 C-32.31703224 -6.94305712 -13.78125474 -7.56202183 0 0 Z " fill="#010101" transform="translate(429.28515625,251.25390625)" />
<ns0:path d="M0 0 C1.26976685 0.00241699 1.26976685 0.00241699 2.56518555 0.00488281 C8.71334954 0.12598211 13.47788127 0.93378396 18.6875 4.375 C19.698125 4.9525 20.70875 5.53 21.75 6.125 C34.72857279 16.06603448 41.58155887 30.37024644 44.00219727 46.46777344 C44.84332473 53.63564228 44.87364598 60.82415766 44.87280273 68.03222656 C44.87498177 70.1076331 44.8931848 72.18249988 44.91210938 74.2578125 C44.99968315 94.28901273 41.48656914 114.36520548 27.59375 129.68359375 C18.31738052 138.58433559 7.78946162 140.77015951 -4.73828125 140.65234375 C-13.05224272 140.00721669 -20.34842838 136.14585116 -26.3125 130.375 C-42.51696726 110.76108219 -42.89213489 84.49861799 -42.3125 60.375 C-42.28542969 58.39693359 -42.28542969 58.39693359 -42.2578125 56.37890625 C-41.63315874 39.3111608 -37.00028495 21.84026281 -25.16796875 9.09375 C-17.76947211 2.24040575 -9.9096293 -0.01947073 0 0 Z " fill="#010101" transform="translate(561.3125,246.625)" />
</ns0:svg></g></g>
  
  <!-- サービス名表示エリア（下部） -->
  <text 
    id="service-name-placeholder" 
    x="34" 
    y="88" 
    font-family="sans-serif" 
    font-size="6" 
    text-anchor="middle" 
    fill="#333333"
  >Kiro</text>
</svg>